<svg xmlns="http://www.w3.org/2000/svg" width="1280" height="900" viewBox="0 0 1280 900" role="img" aria-label="Tea Ceremony">
  
  <defs>
    <linearGradient id="bg-tea" x1="0" y1="0" x2="1" y2="1">
      <stop offset="0" stop-color="#0A1320"/>
      <stop offset="0.55" stop-color="#0F1B2D"/>
      <stop offset="1" stop-color="#0A1320"/>
    </linearGradient>
    <radialGradient id="glow-tea" cx="0.7" cy="0.3" r="0.9">
      <stop offset="0" stop-color="#C9A24B" stop-opacity="0.20"/>
      <stop offset="1" stop-color="#C9A24B" stop-opacity="0"/>
    </radialGradient>
    <filter id="grain-tea">
      <feTurbulence type="fractalNoise" baseFrequency="0.9" numOctaves="2" stitchTiles="stitch"/>
      <feColorMatrix type="saturate" values="0"/>
      <feComponentTransfer><feFuncA type="linear" slope="0.04"/></feComponentTransfer>
      <feComposite operator="over" in2="SourceGraphic"/>
    </filter>
  </defs>
  <rect width="1280" height="900" fill="url(#bg-tea)"/>
  <rect width="1280" height="900" fill="url(#glow-tea)"/>
  
    <path d="M430 470 h420 a60 60 0 0 1 -60 150 h-300 a60 60 0 0 1 -60 -150 z" fill="none" stroke="#F4ECDD" stroke-width="2.5" opacity="0.8"/>
    <path d="M850 500 q70 30 0 90" fill="none" stroke="#C9A24B" stroke-width="2.5" opacity="0.85"/>
    <path d="M520 410 q-10 -50 30 -80 M620 410 q-10 -55 30 -85 M720 410 q-10 -50 30 -80" fill="none" stroke="#C9A24B" stroke-width="2" opacity="0.6"/>
  <rect width="1280" height="900" fill="transparent" filter="url(#grain-tea)"/>
  <rect x="1" y="1" width="1278" height="898" fill="none" stroke="#C9A24B" stroke-width="1" opacity="0.25"/>
  <text x="60" y="840" font-family="Georgia, serif" font-size="34" fill="#F4ECDD" opacity="0.55">Tea Ceremony</text>
  <text x="60" y="876" font-family="Helvetica, Arial, sans-serif" font-size="18" letter-spacing="3" fill="#C9A24B" opacity="0.7">BUSHIDO AI · PLACEHOLDER</text>
</svg>